<?xml version="1.0" encoding="utf-8"?>
<!-- Generator: Adobe Illustrator 16.0.3, SVG Export Plug-In . SVG Version: 6.00 Build 0)  -->
<!DOCTYPE svg PUBLIC "-//W3C//DTD SVG 1.1//EN" "http://www.w3.org/Graphics/SVG/1.1/DTD/svg11.dtd">
<svg version="1.1" id="Layer_1" xmlns="http://www.w3.org/2000/svg" xmlns:xlink="http://www.w3.org/1999/xlink" x="0px" y="0px"
	 width="32px" height="32px" viewBox="0 0 32 32" enable-background="new 0 0 32 32" xml:space="preserve">
<g>
	<g>
		<path fill="#FFF" d="M26,0H6C2.7,0,0,2.7,0,6v20c0,3.3,2.7,6,6,6h20c3.3,0,6-2.7,6-6V6C32,2.7,29.3,0,26,0z M10.5,25.2
			L10.5,25.2C10,25.7,9.4,26,8.7,26s-1.4-0.3-1.9-0.8C6.3,24.7,6,24.1,6,23.3c0-0.7,0.3-1.4,0.8-1.9v0c0.5-0.5,1.1-0.8,1.9-0.8
			c0.7,0,1.4,0.3,1.9,0.8v0l0,0c0,0,0,0,0,0c0.5,0.5,0.8,1.1,0.8,1.9C11.3,24.1,11,24.7,10.5,25.2z M15.4,26L15.4,26L15.4,26
			c0-2.5-1-4.9-2.7-6.6c-1.8-1.8-4.1-2.7-6.6-2.7v-3.8c3.6,0,6.9,1.5,9.3,3.9c2.4,2.4,3.9,5.7,3.9,9.3H15.4z M22.2,26
			c0-8.9-7.3-16.2-16.2-16.2V6c5.5,0,10.5,2.2,14.1,5.9C23.8,15.5,26,20.5,26,26H22.2z"/>
	</g>
</g>
</svg>
