<?xml version="1.0" encoding="utf-8"?>
<!-- Generator: Adobe Illustrator 16.0.3, SVG Export Plug-In . SVG Version: 6.00 Build 0)  -->
<!DOCTYPE svg PUBLIC "-//W3C//DTD SVG 1.1//EN" "http://www.w3.org/Graphics/SVG/1.1/DTD/svg11.dtd">
<svg version="1.1" id="Layer_1" xmlns="http://www.w3.org/2000/svg" xmlns:xlink="http://www.w3.org/1999/xlink" x="0px" y="0px"
	 width="32px" height="32px" viewBox="0 0 32 32" enable-background="new 0 0 32 32" xml:space="preserve">
<path fill="#FFF" d="M32,5.3C32,2.5,29.5,0,26.7,0H5.3C2.5,0,0,2.5,0,5.3v21.3C0,29.5,2.5,32,5.3,32L16,32l0-12h-4v-6h4l0-1.5
	C16,8.9,18.7,6,22,6l5,0v5l-5,0c-0.5,0-1,0.5-1,1.4V14h6v6h-6v12l5.7,0c2.8,0,5.3-2.5,5.3-5.3V5.3z"/>
</svg>
