<?xml version="1.0" encoding="utf-8"?>
<!-- Generator: Adobe Illustrator 16.0.3, SVG Export Plug-In . SVG Version: 6.00 Build 0)  -->
<!DOCTYPE svg PUBLIC "-//W3C//DTD SVG 1.1//EN" "http://www.w3.org/Graphics/SVG/1.1/DTD/svg11.dtd">
<svg version="1.1" id="Layer_1" xmlns="http://www.w3.org/2000/svg" xmlns:xlink="http://www.w3.org/1999/xlink" x="0px" y="0px"
	 width="32px" height="32px" viewBox="0 0 32 32" enable-background="new 0 0 32 32" xml:space="preserve">
<path fill="#FFF" d="M27,8V3h-3v5h-5v3h5v5h3v-5h5v15c0,1.7-0.6,3.1-1.8,4.2S27.6,32,26,32h-9.8c0.5-1,0.8-2.1,0.8-3.3
	c0-0.9-0.2-1.8-0.5-2.6c-0.3-0.8-0.7-1.4-1.2-1.9c-0.5-0.5-1-1-1.5-1.5s-1-0.9-1.5-1.2c-0.5-0.3-0.9-0.7-1.2-1.1
	c-0.3-0.4-0.5-0.8-0.5-1.2c0-0.5,0.2-1,0.5-1.4c0.3-0.4,0.7-0.9,1.2-1.3c0.5-0.4,0.9-0.9,1.4-1.3s0.8-1.1,1.2-1.9
	c0.3-0.8,0.5-1.7,0.5-2.7c0-1-0.2-2-0.6-3c-0.4-1-0.9-1.8-1.6-2.5c-0.1-0.1-0.2-0.2-0.3-0.2c-0.1-0.1-0.2-0.1-0.3-0.2
	c-0.1,0-0.1-0.1-0.2-0.2c-0.1-0.1-0.1-0.2-0.2-0.4h2.8L18,2.6H8.9C7,2.6,5.3,2.9,3.8,3.4C2.3,4,1.1,4.9,0,6.2C0,4.5,0.5,3,1.7,1.8
	C2.8,0.6,4.2,0,6,0h20c1.7,0,3.1,0.6,4.2,1.7C31.4,2.9,32,4.3,32,6v2H27z M4.1,15.2c0.4,0.6,1,1,1.6,1.4c0.6,0.4,1.3,0.5,2,0.5
	c1.3,0,2.3-0.4,2.9-1.3c0.6-0.8,0.9-2,0.9-3.3c0-0.8-0.1-1.7-0.3-2.7c-0.2-0.9-0.5-1.8-1-2.7C9.9,6.3,9.3,5.6,8.5,5
	C7.8,4.4,7,4.1,6.1,4.1c-1.3,0-2.3,0.5-3,1.4C2.3,6.5,2,7.7,2,9c0,0.7,0.1,1.3,0.2,2.1c0.2,0.7,0.4,1.4,0.7,2.2
	C3.3,14,3.7,14.6,4.1,15.2z M6.7,20.1c0-0.3,0.1-0.9,0.4-1.8c-0.5,0.1-1,0.1-1.5,0.1c-2.4,0-4.2-0.8-5.7-2.5v9
	c2.1-1.1,4.7-1.7,8-1.8C7.1,22.1,6.7,21,6.7,20.1z M13.8,28.9c-0.1-0.2-0.2-0.5-0.4-0.7c-0.2-0.3-0.3-0.5-0.4-0.6
	c-0.1-0.2-0.3-0.4-0.6-0.6s-0.4-0.4-0.6-0.5c-0.1-0.1-0.4-0.3-0.7-0.5c-0.3-0.2-0.5-0.4-0.6-0.5c-0.1-0.1-0.3-0.2-0.7-0.5
	c-0.3-0.2-0.6-0.4-0.6-0.4c-0.2,0-0.6,0-1,0c-0.8,0-1.5,0-2.2,0.1c-0.7,0.1-1.5,0.3-2.2,0.5c-0.8,0.2-1.5,0.6-2.1,1
	c-0.6,0.5-1.1,1-1.4,1.6C0.6,29,1.3,30,2.4,30.8C3.5,31.6,4.7,32,6,32h7.9c0.1-0.5,0.2-1,0.2-1.5c0-0.3,0-0.6-0.1-0.8
	C13.9,29.4,13.9,29.2,13.8,28.9z"/>
</svg>
