<?xml version="1.0" encoding="utf-8"?>
<!-- Generator: Adobe Illustrator 16.0.3, SVG Export Plug-In . SVG Version: 6.00 Build 0)  -->
<!DOCTYPE svg PUBLIC "-//W3C//DTD SVG 1.1//EN" "http://www.w3.org/Graphics/SVG/1.1/DTD/svg11.dtd">
<svg version="1.1" id="Layer_1" xmlns="http://www.w3.org/2000/svg" xmlns:xlink="http://www.w3.org/1999/xlink" x="0px" y="0px"
	 width="32px" height="32px" viewBox="0 0 32 32" enable-background="new 0 0 32 32" xml:space="preserve">
<g>
	<g>
		<path fill="#FFF" d="M26,0H6C2.7,0,0,2.7,0,6v20c0,3.3,2.7,6,6,6h20c3.3,0,6-2.7,6-6V6C32,2.7,29.3,0,26,0z M24.8,16.4
			c-1.9,7.7-14.5,10.9-20.3,3c2.2,2.1,6.1,2.3,8.5-0.2c-1.4,0.2-2.5-1.2-0.7-2c-1.6,0.2-2.5-0.7-2.8-1.4c0.4-0.4,0.8-0.6,1.6-0.6
			c-1.7-0.4-2.4-1.3-2.6-2.3c0.5-0.1,1.1-0.2,1.4-0.2c-1.5-0.8-2.1-2-2-2.9c2.7,1,4.5,1.8,5.9,2.6c0.5,0.3,1.1,0.8,1.7,1.4
			c0.8-2.2,1.9-4.5,3.6-5.6c0,0.3-0.2,0.5-0.3,0.7C19.3,8.4,20,8.1,20.6,8c-0.1,0.5-0.8,0.8-1.2,0.9c0.3-0.1,2-0.9,2.2-0.4
			c0.2,0.5-1.2,0.7-1.4,0.8c-0.2,0.1-0.4,0.1-0.5,0.2c2.2-0.2,4.3,1.6,4.9,3.9c0,0.2,0.1,0.3,0.1,0.5c0.8,0.3,2.2,0,2.7-0.3
			c-0.3,0.8-1.2,1.4-2.5,1.5c0.6,0.3,1.8,0.4,2.6,0.3C27,15.9,26.2,16.4,24.8,16.4z"/>
	</g>
</g>
</svg>
