<?xml version="1.0" encoding="utf-8"?>
<!-- Generator: Adobe Illustrator 16.0.3, SVG Export Plug-In . SVG Version: 6.00 Build 0)  -->
<!DOCTYPE svg PUBLIC "-//W3C//DTD SVG 1.1//EN" "http://www.w3.org/Graphics/SVG/1.1/DTD/svg11.dtd">
<svg version="1.1" id="Layer_1" xmlns="http://www.w3.org/2000/svg" xmlns:xlink="http://www.w3.org/1999/xlink" x="0px" y="0px"
	 width="107px" height="22px" viewBox="0 0 107 22" enable-background="new 0 0 107 22" xml:space="preserve">
<path fill="#8F9DAD" d="M51.4,12.7h4v-1.9h-4V8h4.2V6.1H49V18h6.8v-1.9h-4.4V12.7z M64.6,9.2h-2.5l-0.8,1.6
	c-0.2,0.5-0.4,0.9-0.6,1.4h0c-0.2-0.4-0.4-0.9-0.7-1.4l-0.8-1.6h-2.6l2.6,4.3L56.5,18H59l0.8-1.7c0.2-0.5,0.4-0.9,0.6-1.4h0
	c0.2,0.5,0.4,0.9,0.7,1.4L62,18h2.6L62,13.5L64.6,9.2z M28.5,7.2c-1-0.8-2.4-1.2-4.4-1.2c-1.2,0-2.3,0.1-3.1,0.2V18
	c0.6,0.1,1.5,0.2,2.6,0.2c2.1,0,3.8-0.5,4.9-1.5c0.9-0.8,1.8-2.3,1.8-4.9C30.3,9.6,29.6,8.1,28.5,7.2z M24.2,16.3
	c-0.3,0-0.7,0-0.9,0V7.9c0.3,0,0.6-0.1,1.1-0.1c2.2,0,3.5,1.3,3.5,4C27.9,14.9,26.4,16.3,24.2,16.3z M35.5,9.1c-2.6,0-4,2.2-4,4.7
	c0,2.7,1.5,4.4,4.3,4.4c1.1,0,2.1-0.2,2.8-0.5l-0.3-1.6c-0.6,0.2-1.3,0.4-2.1,0.4c-1.3,0-2.3-0.6-2.4-2.1h5.2c0-0.3,0.1-0.6,0.1-0.9
	C39,10.6,37.6,9.1,35.5,9.1z M33.7,12.7c0.1-0.9,0.5-2,1.7-2c1.2,0,1.5,1.1,1.5,2H33.7z M44.2,13.5c-0.2,0.8-0.3,1.5-0.5,2.2h0
	c-0.1-0.8-0.3-1.5-0.5-2.2L42,9.3h-2.5l2.9,8.7h2.3l3-8.7h-2.4L44.2,13.5z M100.5,12.7c-1-0.4-1.3-0.7-1.3-1.2
	c0-0.5,0.4-0.8,1.1-0.8c0.7,0,1.3,0.3,1.7,0.5l0.4-1.6c-0.5-0.3-1.3-0.5-2.2-0.5c-2,0-3.2,1.2-3.2,2.8c0,1,0.6,1.9,2.2,2.5
	c1,0.4,1.3,0.7,1.3,1.2c0,0.5-0.4,0.9-1.2,0.9c-0.7,0-1.6-0.3-2-0.6l-0.4,1.7c0.6,0.3,1.5,0.6,2.5,0.6c2.2,0,3.5-1.1,3.5-2.8
	C102.7,14.2,102,13.3,100.5,12.7z M70.5,9.1c-1.1,0-2,0.5-2.6,1.4h0l-0.1-1.2h-2c0,0.8,0.1,1.7,0.1,2.9v9.2h2.3v-4.2h0
	c0.4,0.6,1.1,1,2.1,1c1.8,0,3.6-1.4,3.6-4.6C73.9,10.8,72.5,9.1,70.5,9.1z M69.7,16.3c-0.8,0-1.6-0.6-1.6-1.9v-1.6
	c0-1,0.7-1.9,1.6-1.9c1.2,0,1.8,1.1,1.8,2.7C71.5,15.2,70.9,16.3,69.7,16.3z M103.8,8.1h0.5v1.6h0.2V8.1h0.5V7.9h-1.3V8.1z
	 M106.8,7.9h-0.2l-0.3,0.9c-0.1,0.2-0.1,0.4-0.2,0.6h0c0-0.2-0.1-0.4-0.2-0.6l-0.3-0.9h-0.2l-0.1,1.8h0.2l0-0.8c0-0.3,0-0.6,0-0.8h0
	c0.1,0.2,0.1,0.4,0.2,0.7l0.3,0.9h0.1l0.3-0.9c0.1-0.3,0.2-0.5,0.2-0.7h0c0,0.2,0,0.5,0,0.8l0,0.8h0.2L106.8,7.9z M93.5,12.7
	c-1-0.4-1.3-0.7-1.3-1.2c0-0.5,0.4-0.8,1.1-0.8c0.7,0,1.3,0.3,1.7,0.5l0.4-1.6c-0.5-0.3-1.3-0.5-2.2-0.5c-2,0-3.2,1.2-3.2,2.8
	c0,1,0.6,1.9,2.2,2.5c1,0.4,1.3,0.7,1.3,1.2c0,0.5-0.4,0.9-1.2,0.9c-0.7,0-1.6-0.3-2.1-0.6l-0.4,1.7c0.6,0.3,1.5,0.6,2.5,0.6
	c2.2,0,3.5-1.1,3.5-2.8C95.7,14.2,95,13.3,93.5,12.7z M77.6,10.8L77.6,10.8l-0.2-1.5h-2c0,0.8,0.1,1.6,0.1,2.7v6h2.3v-4.5
	c0-1.5,0.8-2.2,1.9-2.2c0.2,0,0.4,0,0.6,0V9.1c-0.2,0-0.3,0-0.5,0C79,9.1,78,9.6,77.6,10.8z M85.1,9.1c-2.6,0-4,2.2-4,4.7
	c0,2.7,1.5,4.4,4.3,4.4c1.1,0,2.1-0.2,2.8-0.5L87.9,16c-0.6,0.2-1.3,0.4-2.1,0.4c-1.3,0-2.3-0.6-2.4-2.1h5.3c0-0.3,0.1-0.6,0.1-0.9
	C88.7,10.6,87.3,9.1,85.1,9.1z M83.3,12.7c0.1-0.9,0.5-2,1.7-2c1.2,0,1.5,1.1,1.5,2H83.3z M14.9,3H1C0.5,3,0,3.5,0,4v8.2
	c3.1-3,8.3-6.1,16-6.9c0,0,0,0,0,0V4C16,3.5,15.5,3,14.9,3z M0.5,16.7c-0.2,0.3-0.4,0.5-0.5,0.7v0.5c0,0.6,0.5,1,1,1h13.9
	c0.6,0,1-0.5,1-1V7.5C8,9.1,3.1,13.5,0.5,16.7z"/>
</svg>
